# xmcd
#
# Track frame offsets: 
#        150
#        18654
#        51069
#        66737
#        89969
#        104576
#        124101
#        146257
#        159141
#        174834
#        188136
#
# Disc length: 2818 seconds
#
# Revision: 0
# Processed by: cddbd v1.5.2PL0 Copyright (c) Steve Scherf et al.
# Submitted via: ExactAudioCopy v0.95b4
#
DISCID=990b000b
DTITLE=James Booker - King of the New Orleans Keyboard Vol. !
DYEAR=1977
DGENRE=NOLA
TTITLE0=How do You Feel?
TTITLE1=Goin' Down Slow
TTITLE2=Classified
TTITLE3=One Helluva Nerve
TTITLE4=Blues Rhapsody
TTITLE5=All By Myself
TTITLE6=Ain't Nobody's Business
TTITLE7=Something You Got
TTITLE8=Harlem in Hamburg
TTITLE9=Rockin' Pneumonia
TTITLE10=Please Send Me Someone To Love 
EXTD=
EXTT0=
EXTT1=
EXTT2=
EXTT3=
EXTT4=
EXTT5=
EXTT6=
EXTT7=
EXTT8=
EXTT9=
EXTT10=
PLAYORDER=
